HIERARCHY
ROOT root
{
	OFFSET	0	13.1	24.9
	CHANNELS 6  Xposition Yposition Zposition Xrotation Yrotation Zrotation
	JOINT spine_1
	{
		OFFSET	0	9.99999	0
		CHANNELS 3  Xrotation Yrotation Zrotation
		JOINT spine_2
		{
			OFFSET	0	112	-10
			CHANNELS 3  Xrotation Yrotation Zrotation
			JOINT spine_3
			{
				OFFSET	0	206.5	19.3
				CHANNELS 3  Xrotation Yrotation Zrotation
				JOINT spine_4
				{
					OFFSET	0	110.4	14.6
					CHANNELS 3  Xrotation Yrotation Zrotation
					JOINT neck_1
					{
						OFFSET	0	71.8	-50.3
						CHANNELS 3  Xrotation Yrotation Zrotation
						JOINT neck_2
						{
							OFFSET	0	86.2	-25.8
							CHANNELS 3  Xrotation Yrotation Zrotation
							JOINT head_ee
							{
								OFFSET	0	179.8	-8.7
								CHANNELS 3  Xrotation Yrotation Zrotation
								End Site
								{
									OFFSET	1	0	0
								}
							}
						}
					}
					JOINT left_clavicle
					{
						OFFSET	-43.2	22.4	-70.8
						CHANNELS 3  Xrotation Yrotation Zrotation
						JOINT left_shoulder
						{
							OFFSET	-93.9	-5.79999	48.7
							CHANNELS 3  Xrotation Yrotation Zrotation
							JOINT left_elbow
							{
								OFFSET	-291.4	-30.8	15.2
								CHANNELS 3  Xrotation Yrotation Zrotation
								JOINT left_lowarm_twist
								{
									OFFSET	-110.7	-3.89999	13.6
									CHANNELS 3  Xrotation Yrotation Zrotation
									JOINT left_hand
									{
										OFFSET	-110.7	-3.89999	13.6
										CHANNELS 3  Xrotation Yrotation Zrotation
										JOINT left_ee
										{
											OFFSET	-80.8	-5.10001	12.1
											CHANNELS 3  Xrotation Yrotation Zrotation
											End Site
											{
												OFFSET	1	0	0
											}
										}
									}
								}
							}
						}
					}
					JOINT right_clavicle
					{
						OFFSET	43.2	22.4	-70.8
						CHANNELS 3  Xrotation Yrotation Zrotation
						JOINT right_shoulder
						{
							OFFSET	93.9	-5.79999	48.7
							CHANNELS 3  Xrotation Yrotation Zrotation
							JOINT right_elbow
							{
								OFFSET	291.4	-30.8	15.2
								CHANNELS 3  Xrotation Yrotation Zrotation
								JOINT right_lowarm_twist
								{
									OFFSET	110.7	-3.89999	13.6
									CHANNELS 3  Xrotation Yrotation Zrotation
									JOINT right_hand
									{
										OFFSET	110.7	-3.89999	13.6
										CHANNELS 3  Xrotation Yrotation Zrotation
										JOINT right_ee
										{
											OFFSET	80.8	-5.10001	12.1
											CHANNELS 3  Xrotation Yrotation Zrotation
											End Site
											{
												OFFSET	1	0	0
											}
										}
									}
								}
							}
						}
					}
				}
			}
		}
	}
	JOINT left_hip
	{
		OFFSET	-82.8	-127.5	0.300001
		CHANNELS 3  Xrotation Yrotation Zrotation
		JOINT left_knee
		{
			OFFSET	-28.2	-396.7	2.2
			CHANNELS 3  Xrotation Yrotation Zrotation
			JOINT left_ankle
			{
				OFFSET	-11.7	-411.3	35.4
				CHANNELS 3  Xrotation Yrotation Zrotation
				JOINT left_toes
				{
					OFFSET	0	-60	-88.6
					CHANNELS 3  Xrotation Yrotation Zrotation
					JOINT left_foot_ee
					{
						OFFSET	-22.5	-16.5	-42.2
						CHANNELS 3  Xrotation Yrotation Zrotation
						End Site
						{
							OFFSET	1	0	0
						}
					}
				}
			}
		}
	}
	JOINT right_hip
	{
		OFFSET	82.8	-127.5	0.300001
		CHANNELS 3  Xrotation Yrotation Zrotation
		JOINT right_knee
		{
			OFFSET	28.2	-396.7	2.2
			CHANNELS 3  Xrotation Yrotation Zrotation
			JOINT right_ankle
			{
				OFFSET	11.7	-411.3	35.4
				CHANNELS 3  Xrotation Yrotation Zrotation
				JOINT right_toes
				{
					OFFSET	0	-60	-88.6
					CHANNELS 3  Xrotation Yrotation Zrotation
					JOINT right_foot_ee
					{
						OFFSET	22.5	-16.5	-42.2
						CHANNELS 3  Xrotation Yrotation Zrotation
						End Site
						{
							OFFSET	1	0	0
						}
					}
				}
			}
		}
	}
}
MOTION
Frames: 8
Frame Time: 0.02
1592.58 728.464 -1354.54 -39.6975 81.2856 37.1302 2.85316 -0.157477 1.62971 2.8546 -0.260847 1.6164 2.84677 -0.518411 1.55308 2.8435 -0.266659 1.61545 -1.66457 4.94182 -1.42764 -1.59486 10.0425 -0.882567 -0.0 0.0 -0.0 -3.22359 11.5725 -4.09193 14.9405 -33.3217 68.8352 1.41291 -34.9867 0.445328 -12.9099 -0.629358 1.52248 2.13537 9.05528 17.8255 -0.0 0.0 -0.0 9.37348 9.12378 -18.4827 -22.8551 -0.964036 -64.7668 0.198238 5.60867 -0.00971051 61.8888 1.94494 7.27939 3.43181 -29.5854 -31.7338 0.0 0.0 0.0 4.61803 -1.10267 6.58031 6.1938 -0.304141 -0.90105 20.9 -1.79737 -2.87566 -24.5212 0.0 0.0 -0.0 0.0 -0.0 24.6726 7.85298 2.9974 -59.611 2.15813 -8.48245 26.1089 -27.6422 3.70528 -4.91028 0.0 0.0 0.0 0.0 0.0 
1569.99 728.047 -1355.08 -34.4423 80.2911 31.5717 3.13193 -0.0613131 1.60258 3.13334 -0.163152 1.59544 3.12826 -0.410965 1.55022 3.12495 -0.161012 1.59565 -3.65148 5.95991 -1.89292 -3.57697 12.3299 -1.0431 -0.0 0.0 -0.0 -2.55307 11.1457 -3.02604 15.8213 -33.3185 67.683 1.39352 -34.6158 0.434264 -14.5281 -0.732022 1.70232 0.650172 9.71808 8.22653 -0.0 0.0 -0.0 8.65534 4.29907 -16.9757 -25.0013 0.440628 -63.5853 0.290277 8.18291 -0.0207639 60.8348 1.84881 7.1844 3.16941 -30.3832 -30.1397 0.0 0.0 0.0 2.66984 -2.44122 7.4167 5.45426 -0.262716 -0.795226 24.323 -2.21235 -3.29161 -21.6873 0.0 0.0 -0.0 0.0 -0.0 26.0408 7.59582 2.78726 -60.6396 2.26944 -8.59553 22.6792 -27.8682 3.27356 -4.96588 0.0 0.0 0.0 0.0 0.0 
1555.86 722.488 -1355.54 -28.6948 79.7288 25.5923 3.2881 0.0480476 1.57317 3.28947 -0.0521423 1.57304 3.28749 -0.293479 1.54631 3.28415 -0.045617 1.57325 -4.2386 6.22289 -0.688774 -4.19192 11.9177 0.300172 -0.0 0.0 -0.0 -2.15755 10.24 -2.50269 16.1059 -33.4141 65.9869 1.42799 -35.2729 0.454006 -13.6479 -0.675546 1.60485 0.463382 6.9566 5.92567 -0.0 0.0 -0.0 8.19461 3.51049 -16.0167 -26.3884 0.27274 -63.6481 0.308437 8.68726 -0.0234278 59.6011 1.73855 7.07101 3.21761 -29.5025 -30.3298 0.0 0.0 0.0 0.633188 -1.91054 8.13812 3.99547 -0.185033 -0.584988 27.6967 -0.280106 -3.66149 -22.0802 0.0 0.0 -0.0 0.0 -0.0 26.3898 7.96465 1.90268 -57.0338 1.88835 -8.19061 24.0345 -27.4224 3.43844 -4.90294 0.0 0.0 0.0 0.0 0.0 
1540.54 723.586 -1352.89 -25.0753 79.144 21.8655 3.21309 0.105036 1.47458 3.2143 0.0110022 1.47828 3.21413 -0.218355 1.46211 3.21114 0.0152718 1.47824 -5.34401 6.12277 -0.766215 -5.31378 11.85 0.311423 -0.0 0.0 -0.0 -0.8601 10.1527 -0.277808 16.3386 -33.1259 64.1334 1.4198 -35.1178 0.449287 -13.7766 -0.683712 1.61916 0.165434 6.47253 3.78131 -0.0 0.0 -0.0 7.63059 2.37738 -14.8595 -27.3483 0.576923 -62.8782 0.341728 9.60827 -0.0287207 59.5785 1.73654 7.06891 3.12234 -29.3006 -29.6888 0.0 0.0 0.0 -0.427047 -2.39578 8.67733 3.33554 -0.151659 -0.489258 28.6269 -1.56968 -3.77471 -22.2437 0.0 0.0 -0.0 0.0 -0.0 27.6714 6.25837 2.76252 -52.0756 1.4077 -7.59682 23.2037 -25.2358 3.28729 -5.33235 0.0 0.0 0.0 0.0 0.0 
1529.64 727.058 -1348.68 -21.8064 78.4087 18.8258 3.31883 0.145359 1.42671 3.31996 0.054289 1.43306 3.32086 -0.165911 1.42446 3.31804 0.0611149 1.43279 -6.3699 6.34711 -0.203046 -6.35854 11.9036 1.02274 -0.0 0.0 -0.0 -1.02705 9.57799 -0.646497 16.8402 -34.0214 64.1474 1.4474 -35.6383 0.465263 -14.6757 -0.741641 1.71858 -0.328578 5.90469 0.31635 -0.0 0.0 -0.0 7.24872 1.39128 -14.088 -28.1029 0.856933 -62.7648 0.389333 10.9165 -0.0372023 58.7051 1.66001 6.9872 2.7825 -28.4707 -27.3972 0.0 0.0 0.0 -1.28735 -3.24357 8.96999 2.38947 -0.105748 -0.351378 27.1143 -2.76511 -3.61822 -23.0272 0.0 0.0 -0.0 0.0 -0.0 28.8556 6.09282 2.34599 -46.7249 0.949045 -6.91274 24.6805 -22.5118 3.42273 -5.72007 0.0 0.0 0.0 0.0 0.0 
1510.94 726.866 -1351.77 -21.5045 78.6244 18.1698 3.33568 0.127212 1.42242 3.33681 0.0364507 1.42763 3.33726 -0.182306 1.41642 3.33446 0.0436546 1.42743 -7.67345 6.78457 0.132107 -7.68381 12.5521 1.5786 -0.0 0.0 -0.0 -0.80236 11.2489 -0.0294328 16.8404 -34.2916 63.2631 1.55489 -37.6025 0.529394 -15.7662 -0.813994 1.83795 -0.552236 4.0196 -1.95634 -0.0 0.0 -0.0 6.93354 -0.342189 -13.4603 -29.0907 1.07135 -62.9209 0.369937 10.3848 -0.0336174 58.7232 1.66158 6.98891 2.70821 -28.498 -26.936 0.0 0.0 0.0 -3.27242 -3.71726 9.4767 2.40334 -0.106404 -0.353405 28.9354 -2.74783 -3.81995 -22.8886 0.0 0.0 -0.0 0.0 -0.0 29.1503 6.48329 2.02833 -40.5208 0.500231 -6.07102 28.9608 -20.1523 3.88925 -4.19127 0.0 0.0 0.0 0.0 0.0 
1496.45 724.545 -1354.08 -18.5667 78.3665 15.0229 3.42532 0.0600545 1.6037 3.42675 -0.0421014 1.60427 3.42495 -0.284571 1.5794 3.42147 -0.0315967 1.60451 -8.98121 6.65827 -0.180531 -9.01326 12.6074 1.38003 -0.0 0.0 -0.0 -0.236363 9.92444 0.767741 16.9914 -34.4563 61.805 1.50283 -36.6637 0.497965 -16.2503 -0.846845 1.8905 -0.893801 4.71933 -3.90314 -0.0 0.0 -0.0 6.66417 -1.36765 -12.9305 -30.2755 1.23585 -63.4699 0.471038 13.1345 -0.0542284 58.1009 1.6078 6.93 2.6328 -28.4228 -26.4514 0.0 0.0 0.0 -4.49405 -4.21926 9.63937 1.02692 -0.0436475 -0.151538 31.6898 -3.18187 -4.11788 -23.288 0.0 0.0 -0.0 0.0 -0.0 29.2579 7.89836 1.3044 -32.724 0.0698721 -4.95389 27.8504 -17.0669 3.71827 -4.75149 0.0 0.0 0.0 0.0 0.0 
1481.02 726.615 -1353.81 -19.5985 78.5879 15.8337 3.48729 -0.00605366 1.57465 3.48866 -0.106228 1.57108 3.48512 -0.341336 1.53723 3.48183 -0.0943069 1.57184 -9.76802 6.85943 -0.0179051 -9.81639 12.9141 1.67407 -0.0 0.0 -0.0 0.0257923 11.6435 1.41988 17.2101 -35.2614 62.039 1.61678 -38.6885 0.567623 -16.725 -0.879487 1.94177 -1.00355 3.26631 -5.27077 -0.0 0.0 -0.0 6.49715 -2.38037 -12.6053 -30.3322 1.19834 -62.7393 0.395488 11.0848 -0.0383768 58.1978 1.61613 6.93921 2.56815 -28.0708 -25.9821 0.0 0.0 0.0 -5.61872 -4.62296 9.80874 1.31488 -0.0563745 -0.193891 30.3351 -4.23484 -3.98811 -22.9385 0.0 0.0 -0.0 0.0 -0.0 30.859 7.8649 1.41711 -29.5674 -0.0603932 -4.48706 28.8709 -16.0792 3.82185 -4.63157 0.0 0.0 0.0 0.0 0.0 
